<?xml version="1.0" encoding="UTF-8" standalone="no"?>
<svg
   xmlns:dc="http://purl.org/dc/elements/1.1/"
   xmlns:cc="http://creativecommons.org/ns#"
   xmlns:rdf="http://www.w3.org/1999/02/22-rdf-syntax-ns#"
   xmlns:svg="http://www.w3.org/2000/svg"
   xmlns="http://www.w3.org/2000/svg"
   viewBox="0 0 3176 1210.5601"
   height="1210.5601"
   width="3176"
   xml:space="preserve"
   id="svg99"
   version="1.1"><metadata
     id="metadata105"><rdf:RDF><cc:Work
         rdf:about=""><dc:format>image/svg+xml</dc:format><dc:type
           rdf:resource="http://purl.org/dc/dcmitype/StillImage" /><dc:title></dc:title></cc:Work></rdf:RDF></metadata><defs
     id="defs103"><clipPath
       id="clipPath115"
       clipPathUnits="userSpaceOnUse"><path
         style="clip-rule:evenodd"
         id="path113"
         d="M 0,0 H 9921.875 V 3781.25 H 0 Z" /></clipPath></defs><g
     transform="matrix(0.31999998,0,0,0.31999998,0,5.6930666e-5)"
     id="g107"><g
       id="g109"><g
         clip-path="url(#clipPath115)"
         id="g111"><g
           transform="matrix(29.720062,0,0,29.736053,21.464491,125.55224)"
           id="g117"><path
             id="path119"
             style="fill:#a80c35;fill-opacity:1;fill-rule:nonzero;stroke:none"
             d="M 86.300003,29.5 72.5,21.200001 82.900002,5 l -13,14.6 L 66.099998,17.299999 67.300003,14.2 58.200001,26.700001 55.599998,43.299999 54.5,50.700001 l -6.700001,2.5 L 29,53.900002 l -2.799999,4.399997 4,6.799999 L 33.299999,95 37,80.5 46.900002,93 40.099998,73.300003 l 12.200001,-8.5 L 64.400002,63.799999 76.5,79.900002 83.900002,89.800003 75.5,71.199997 l -1,-10.099999 6,-5.5 11,11.200005 L 84.5,52 77.099998,52.299999 67.5,31.799999 85.400002,32.099998 Z" /><path
             id="path121"
             style="fill:#a80c35;fill-opacity:1;fill-rule:nonzero;stroke:none"
             d="M 17.4,50 12,52.599998 8.5,47.700001 9.1999998,54 14.8,57.099998 l 7.3,-3 6.9,-0.199996 -5.700001,-4.700001 z" /></g><g
           transform="matrix(116.23622,0,0,116.29877,3968.4907,-426.72357)"
           id="g123"><path
             id="path125"
             style="fill:#a80c35;fill-opacity:1;fill-rule:nonzero;stroke:none"
             d="M 9.8800001,24 5.7400002,17.619999 3.5000002,20.4 V 24 H 1.7000003 V 10 h 1.7999999 v 7.619999 l 6.2200001,-7.62 h 2.1800007 l -4.9400005,6.12 L 11.980001,24 H 9.8800011 Z m 6.2599989,-1.719999 h 5.92 L 21.939999,24 H 14.339998 V 10 h 1.8 v 12.279999 z m 16.5,0 L 32.759998,24 h -8.52 V 10 h 8.119999 l 0.139999,1.72 h -6.459999 v 3.42 h 4.380001 v 1.720001 h -4.380001 v 5.42 h 6.599999 z M 35.360001,24 V 10 H 37.16 v 14 z m 4.399997,-1.459999 c 0.880001,0.82 2.700001,1.66 4.520001,1.66 2.799999,0 4.580002,-1.440001 4.580002,-3.700001 0,-1.84 -0.880001,-2.92 -3.919999,-4.639999 -2.319999,-1.34 -2.880001,-1.78 -2.880001,-2.66 0,-0.940001 0.880001,-1.68 2.360001,-1.68 0.860001,0 2,0.38 2.66,0.8 l 0.959999,-1.44 c -0.939999,-0.62 -2.419998,-1.0799999 -3.599999,-1.0799999 -2.580001,0 -4.299999,1.4799999 -4.299999,3.4199999 0,1.72 0.860001,2.58 3.5,4.020001 2.34,1.28 3.299999,2.219999 3.299999,3.239999 0,1.200001 -1.04,1.920001 -2.659999,1.920001 -1.400002,0 -2.8,-0.66 -3.5,-1.3 z" /></g><g
           transform="matrix(28.147953,0,0,28.163099,4153.1445,2384.0569)"
           id="g127"><path
             id="path129"
             style="fill:#a80c35;fill-opacity:1;fill-rule:nonzero;stroke:none"
             d="M 10.44,11.72 H 6.3599997 V 24 H 4.5599995 V 11.72 H 0.45999956 L 0.57999957,10 H 10.32 Z M 27.733999,22.280001 27.854,24 h -8.52 V 10 h 8.119999 l 0.139999,1.72 h -6.459999 v 3.42 H 25.514 v 1.720001 h -4.380001 v 5.42 z M 36.608002,17 c 0,-4.04 3.18,-7.1999998 7.18,-7.1999998 1.68,0 3.279999,0.5600008 4.700001,1.6400008 L 47.588001,12.84 c -1.18,-0.899999 -2.400001,-1.34 -3.799999,-1.34 -3.02,0 -5.380001,2.42 -5.380001,5.5 0,3.08 2.380001,5.5 5.380001,5.5 1.52,0 2.82,-0.48 3.799999,-1.42 l 0.919998,1.379999 c -1.220001,1.1 -2.939998,1.74 -4.720001,1.74 -4,0 -7.18,-3.18 -7.18,-7.199999 z M 66.561996,10 H 68.362 V 24 H 66.561996 V 17.559999 H 59.621998 V 24 H 57.821999 V 10 h 1.799999 v 5.84 h 6.939998 z M 88.056,10 h 1.800003 v 14.200001 h -0.220001 l -9.400002,-9.98 V 24 H 78.456001 V 9.8000002 h 0.199997 L 88.056,19.779999 v -9.78 z m 18.514,14.200001 c -4,0 -7.180001,-3.200001 -7.180001,-7.200001 0,-4 3.180001,-7.1999998 7.180001,-7.1999998 4,0 7.18,3.1999998 7.18,7.1999998 0,4 -3.18,7.200001 -7.18,7.200001 z m 0,-1.720001 c 3.04,0 5.32,-2.380002 5.32,-5.48 0,-3.099998 -2.28,-5.479999 -5.32,-5.479999 -3.06,0 -5.34,2.38 -5.34,5.479999 0,3.099998 2.28,5.48 5.33999,5.48 z m 18.534,-0.199999 h 5.92 L 130.90401,24 h -7.6 V 10 h 1.8 v 12.279999 z m 21.43399,1.92 c -4,0 -7.17999,-3.200001 -7.17999,-7.200001 0,-4 3.17999,-7.1999998 7.17999,-7.1999998 4,0 7.18,3.1999998 7.18,7.1999998 0,4 -3.18,7.200001 -7.18,7.200001 z m 0,-1.720001 c 3.04,0 5.32001,-2.380002 5.32001,-5.48 0,-3.099998 -2.28,-5.479999 -5.32001,-5.479999 -3.05999,0 -5.33999,2.38 -5.33999,5.479999 0,3.099998 2.28,5.48 5.33999,5.48 z m 28.334,-6.6 v 6.86 c -1.08,0.819999 -2.55999,1.460001 -4.89999,1.460001 -4.39999,0 -7.25999,-3.200001 -7.25999,-7.200001 0,-4 3.02,-7.1999998 7.22,-7.1999998 1.94,0 3.53999,0.6999998 4.8,1.6999998 l -0.94,1.36 c -1.10001,-0.88 -2.46001,-1.34 -3.86,-1.34 -3,0 -5.34,2.279999 -5.34,5.48 0,3.200001 2.16,5.459999 5.38001,5.459999 1.22,0 2.25999,-0.26 3.1,-0.66 v -4.18 h -2.7 l 0.12,-1.74 h 4.38 z m 20.334,-5.88 -4.94,7.779999 v 6.219999 h -1.8 v -6.199999 l -4.96001,-7.8 h 2.03999 l 3.82001,6.02 3.80001,-6.0200009 h 2.03999 z" /></g></g></g></g></svg>